<?xml version="1.0" encoding="UTF-8"?>
<svg id="Capa_2" data-name="Capa 2" xmlns="http://www.w3.org/2000/svg" viewBox="0 0 1211.96 1376.66">
  <defs>
    <style>
      .cls-1 {
        fill: #f39200;
      }

      .cls-1, .cls-2, .cls-3 {
        stroke-width: 0px;
      }

      .cls-2 {
        fill: #00c49d;
      }

      .cls-3 {
        fill: #1d1d1b;
      }
    </style>
  </defs>
  <g id="Capa_1-2" data-name="Capa 1">
    <g>
      <path class="cls-3" d="M1211.96,995.67V380.99c0-26.31-14.04-50.63-36.83-63.79L642.81,9.87c-22.79-13.16-50.87-13.16-73.65,0L36.83,317.21C14.04,330.36,0,354.68,0,380.99v614.68c0,26.31,14.04,50.63,36.83,63.79l532.33,307.34c22.79,13.16,50.87,13.16,73.65,0l532.33-307.34c22.79-13.16,36.83-37.47,36.83-63.79Z"/>
      <path class="cls-1" d="M242.03,352.29l-11.92,6.88c-60.1,34.7-97.12,98.82-97.12,168.22v321.88c0,69.4,37.02,133.52,97.12,168.22l11.92,6.88c36.18,20.89,81.4-5.22,81.4-47V399.28c0-41.77-45.22-67.88-81.4-47Z"/>
      <path class="cls-2" d="M1008.99,374.84l-333.02-192.27c-43.31-25-96.67-25-139.98,0l-36.97,21.35c-20.19,11.66-32.62,33.2-32.62,56.51v119.08c0,23.59,12.73,45.34,33.3,56.89l419.78,235.78c12.61,7.08,12.61,25.23,0,32.32l-419.78,235.78c-20.57,11.55-33.3,33.3-33.3,56.89v119.08c0,23.31,12.44,44.85,32.62,56.51l4.35,2.51c63.5,36.66,141.73,36.66,205.23,0l300.39-173.43c43.31-25,69.99-71.22,69.99-121.22v-384.54c0-50.01-26.68-96.22-69.99-121.22Z"/>
    </g>
  </g>
</svg>